<svg width="685" height="562" viewBox="0 0 685 562" fill="none" xmlns="http://www.w3.org/2000/svg">
<path fill-rule="evenodd" clip-rule="evenodd" d="M343.744 516.306C380.804 545.858 426.819 561.752 474.078 561.752C590.732 561.503 685 467.135 685 350.665V38.784C685 27.6571 675.98 18.6369 664.853 18.6369C653.726 18.6369 644.706 27.6571 644.706 38.784V350.416C644.955 387.419 633.016 423.179 611.127 452.731C554.915 528.226 447.961 543.871 372.348 487.747C405.18 449.503 423.337 400.829 423.088 350.416V78.983C422.342 35.7722 387.271 0.756604 343.992 0.0115904C299.47 -0.733423 262.658 34.5305 261.912 78.983V350.416C262.16 400.829 280.566 449.751 313.896 487.747C284.546 509.352 248.978 521.273 212.415 521.273C117.649 521.521 40.5428 445.033 40.2941 350.416V38.784C40.2941 27.6571 31.274 18.6369 20.1471 18.6369C9.02015 18.6369 0 27.6571 0 38.784V350.913C0 467.383 95.7607 562 212.415 562C260.171 562 306.434 545.858 343.744 516.306ZM340.5 38C363 38 381 56.1425 381 78.2615V349.902C381 390.164 366.75 429.183 340.5 460C314.5 429.183 300 390.164 300 349.902V78.2615C300 55.894 318.25 38 340.5 38Z" fill="#0772DE" fill-opacity="0.1"/>
</svg>
